<svg width="17" height="20" viewBox="0 0 17 20" fill="none" xmlns="http://www.w3.org/2000/svg">
<path d="M12.2208 12.8647V6.00589C13.5796 6.97648 15.262 7.49413 16.9443 7.49413V4.84119C15.9737 4.64707 15.0679 4.12942 14.3561 3.35295C13.2561 2.64119 12.5443 1.54119 12.2855 0.24707H9.82668V13.8353C9.76197 15.3882 8.46785 16.6177 6.85021 16.553C6.00903 16.4882 5.16785 16.1 4.65021 15.3882C3.29138 14.6765 2.70903 12.9294 3.4855 11.5706C4.00315 10.6647 4.90903 10.0824 6.00903 10.0824C6.26786 10.0824 6.59138 10.1471 6.85021 10.2118V7.55883C3.4208 7.62354 0.70315 10.4706 0.767856 13.9C0.767856 15.453 1.41491 16.9412 2.45021 18.0412C3.4855 18.753 4.77962 19.1412 6.00903 19.0765C9.43844 19.1412 12.2208 16.3588 12.2208 12.8647Z" fill="black"/>
</svg>
