<svg width="22" height="13" viewBox="0 0 22 13" fill="none" xmlns="http://www.w3.org/2000/svg">
<path fill-rule="evenodd" clip-rule="evenodd" d="M10.8767 12.7367H12.1718C12.1718 12.7367 12.563 12.6938 12.7627 12.4785C12.9465 12.2808 12.9406 11.9096 12.9406 11.9096C12.9406 11.9096 12.9153 10.1719 13.7218 9.91603C14.5169 9.66396 15.5378 11.5955 16.6199 12.3382C17.4381 12.9003 18.0599 12.777 18.0599 12.777L20.9533 12.7367C20.9533 12.7367 22.4669 12.6435 21.7492 11.4534C21.6904 11.3561 21.3312 10.5731 19.5979 8.96423C17.7838 7.28034 18.0267 7.55271 20.2121 4.63996C21.543 2.86607 22.0751 1.78309 21.9089 1.31925C21.7504 0.877468 20.7715 0.994237 20.7715 0.994237L17.5137 1.01453C17.5137 1.01453 17.2723 0.981589 17.0931 1.08865C16.9181 1.19366 16.8055 1.43837 16.8055 1.43837C16.8055 1.43837 16.2899 2.81107 15.6022 3.97846C14.1516 6.44178 13.5715 6.57179 13.3345 6.41884C12.783 6.06236 12.9206 4.98673 12.9206 4.22259C12.9206 1.83544 13.2827 0.840114 12.2156 0.582458C11.8615 0.496867 11.6009 0.440394 10.6953 0.431276C9.53287 0.419217 8.54901 0.434805 7.99193 0.707756C7.62133 0.889233 7.33544 1.29366 7.50956 1.3169C7.72486 1.34572 8.21253 1.44837 8.47107 1.80044C8.8049 2.25458 8.79314 3.27461 8.79314 3.27461C8.79314 3.27461 8.98491 6.08471 8.34518 6.43384C7.90605 6.67326 7.30367 6.18442 6.01039 3.94964C5.34772 2.80489 4.84741 1.53955 4.84741 1.53955C4.84741 1.53955 4.75093 1.30307 4.57887 1.1766C4.37004 1.02336 4.07826 0.974531 4.07826 0.974531L0.982565 0.994825C0.982565 0.994825 0.517842 1.00777 0.347248 1.20983C0.195478 1.38955 0.335189 1.76132 0.335189 1.76132C0.335189 1.76132 2.7588 7.43152 5.50302 10.289C8.01929 12.9088 10.8767 12.7367 10.8767 12.7367Z" fill="white"/>
</svg>
