<svg width="22" height="15" viewBox="0 0 22 15" fill="none" xmlns="http://www.w3.org/2000/svg">
<path d="M1.11043 12.1976C1.53288 13.5875 2.82525 13.8416 2.91146 13.8905C5.03839 14.4279 16.9601 14.4294 19.119 13.8905C20.5976 13.494 20.8692 12.2776 20.92 12.1976C21.483 9.41969 21.5201 5.79812 20.8942 2.64594L20.92 2.80267C20.4976 1.41288 19.2052 1.15861 19.119 1.10983C17.0205 0.581263 5.0677 0.561269 2.91146 1.10983C1.43287 1.50724 1.16131 2.72269 1.11043 2.80267C0.50779 5.72216 0.477616 9.07185 1.11043 12.1976ZM8.94391 10.4201V4.58826L14.3461 7.50855L8.94391 10.4201Z" fill="white"/>
</svg>
