<svg width="146" height="146" viewBox="0 0 146 146" fill="none" xmlns="http://www.w3.org/2000/svg">
<path fill-rule="evenodd" clip-rule="evenodd" d="M0.484375 73C0.484375 32.7473 33.0074 0 72.9844 0C112.961 0 145.484 32.7473 145.484 73C145.484 113.252 112.961 146 72.9844 146C33.0074 146 0.484375 113.252 0.484375 73ZM8.98046 73C8.98046 108.535 37.6924 137.445 72.9844 137.445C108.276 137.445 136.988 108.535 136.988 73C136.988 37.4646 108.276 8.55468 72.9844 8.55468C37.6924 8.55468 8.98046 37.4646 8.98046 73ZM41.9129 81.3429L76.4367 31.2857L72.9844 64.6571H104.056L69.532 114.714L72.9844 81.3429H41.9129Z" fill="#FFD400"/>
</svg>
